<svg width="20" height="21" viewBox="0 0 20 21" fill="none" xmlns="http://www.w3.org/2000/svg">
<path fill-rule="evenodd" clip-rule="evenodd" d="M20 4.43425V19.4572C20 19.9643 19.5563 20.3753 19.009 20.3753H0.990991C0.443682 20.3753 0 19.9643 0 19.4572V4.43425C0 4.94129 0.443682 5.35232 0.990991 5.35232H1.98198V18.5392H18.018V5.35232H19.009C19.5563 5.35232 20 4.94129 20 4.43425ZM19.7087 3.7841L19.7097 3.78507C19.8956 3.95725 20 4.19076 20 4.43425C20 4.18024 19.8886 3.95032 19.7087 3.7841ZM16.6165 3.51618L14.9949 2.01388H5.00508L3.38346 3.51618H0.990991C0.717866 3.51618 0.470548 3.61854 0.291296 3.78411L3.89386 0.446631C4.07971 0.27446 4.33177 0.177734 4.59459 0.177734H15.4054C15.6682 0.177734 15.9203 0.27446 16.1061 0.446631L19.7087 3.7841C19.5294 3.61853 19.2821 3.51618 19.009 3.51618H16.6165ZM0.291296 3.78411L0.290255 3.78507C0.104408 3.95725 0 4.19076 0 4.43425C0 4.18024 0.11135 3.95032 0.291296 3.78411ZM16.6165 3.51618L18.018 4.81453V5.35232H1.98198V4.81453L3.38346 3.51618H16.6165ZM14.5045 7.68923C13.9572 7.68923 13.5135 8.10027 13.5135 8.6073C13.5135 10.4372 11.9752 11.8623 10 11.8623C8.02479 11.8623 6.48649 10.4372 6.48649 8.6073C6.48649 8.10027 6.0428 7.68923 5.4955 7.68923C4.94819 7.68923 4.5045 8.10027 4.5045 8.6073C4.5045 11.4513 6.93017 13.6984 10 13.6984C13.0698 13.6984 15.4955 11.4513 15.4955 8.6073C15.4955 8.10027 15.0518 7.68923 14.5045 7.68923Z" fill="#111111"/>
</svg>
