<svg width="20" height="21" viewBox="0 0 20 21" fill="none" xmlns="http://www.w3.org/2000/svg">
<path fill-rule="evenodd" clip-rule="evenodd" d="M16.6942 7.39285C16.6942 8.49968 16.2598 9.75706 15.478 11.1607C14.9801 12.0544 14.3495 12.9903 13.6165 13.9507C12.9671 14.8014 12.2733 15.6252 11.5795 16.3921C11.3366 16.6607 11.1107 16.9033 10.9075 17.1161C10.7842 17.2451 10.695 17.3364 10.6453 17.3862C10.2897 17.7429 9.71025 17.7429 9.35466 17.3862C9.30502 17.3364 9.21577 17.2451 9.09254 17.1161C8.88931 16.9033 8.66342 16.6607 8.42046 16.3921C7.72666 15.6252 7.03286 14.8014 6.38353 13.9507C5.65047 12.9903 5.01988 12.0544 4.52203 11.1607C3.74019 9.75706 3.30579 8.49968 3.30579 7.39285C3.30579 3.51116 6.40543 0.730469 10 0.730469C13.5946 0.730469 16.6942 3.51116 16.6942 7.39285ZM10.2283 15.1813C10.8904 14.4494 11.5525 13.6633 12.1686 12.856C12.8528 11.9597 13.4365 11.0935 13.8878 10.2832C14.5336 9.12393 14.876 8.13263 14.876 7.39278C14.876 4.55477 12.6301 2.53993 10 2.53993C7.36992 2.53993 5.12397 4.55477 5.12397 7.39278C5.12397 8.13263 5.46644 9.12393 6.1122 10.2832C6.56354 11.0935 7.14721 11.9597 7.83135 12.856C8.44751 13.6633 9.1096 14.4494 9.77169 15.1813C9.84978 15.2676 9.92596 15.3511 10 15.4315C10.074 15.3511 10.1502 15.2676 10.2283 15.1813ZM7.43802 7.39281C7.43802 8.80103 8.58506 9.94261 10 9.94261C11.4149 9.94261 12.562 8.80103 12.562 7.39281C12.562 5.98459 11.4149 4.84301 10 4.84301C8.58506 4.84301 7.43802 5.98459 7.43802 7.39281ZM10 8.13313C10.4108 8.13313 10.7438 7.8017 10.7438 7.39286C10.7438 6.98402 10.4108 6.6526 10 6.6526C9.58921 6.6526 9.2562 6.98402 9.2562 7.39286C9.2562 7.8017 9.58921 8.13313 10 8.13313ZM14.0636 15.0361C13.9758 15.528 14.3053 15.9978 14.7996 16.0852C15.9681 16.2919 16.9222 16.57 17.556 16.8806C17.903 17.0507 18.0821 17.1893 18.1495 17.2415C18.1717 17.2587 18.1818 17.2666 18.1818 17.263C18.1818 17.8141 14.4545 18.8258 10 18.8258C5.54553 18.8258 1.81818 17.8141 1.81818 17.263C1.81818 17.2666 1.82829 17.2587 1.8505 17.2415C1.91795 17.1893 2.09701 17.0507 2.44396 16.8806C3.07785 16.57 4.03194 16.2919 5.20041 16.0852C5.69474 15.9978 6.02425 15.528 5.93638 15.0361C5.84852 14.5441 5.37656 14.2161 4.88223 14.3036C1.8775 14.8351 0 15.7552 0 17.263C0 19.4376 4.41277 20.6353 10 20.6353C15.5872 20.6353 20 19.4376 20 17.263C20 15.7552 18.1225 14.8351 15.1178 14.3036C14.6234 14.2161 14.1515 14.5441 14.0636 15.0361Z" fill="#111111"/>
</svg>
