<svg width="20" height="20" viewBox="0 0 20 20" fill="none" xmlns="http://www.w3.org/2000/svg">
<path fill-rule="evenodd" clip-rule="evenodd" d="M11.6667 1.70904C11.2064 1.70904 10.8333 1.33771 10.8333 0.879664C10.8333 0.421615 11.2064 0.050293 11.6667 0.050293C16.2694 0.050293 20 3.76315 20 8.344C20 8.80205 19.6269 9.17338 19.1667 9.17338C18.7064 9.17338 18.3333 8.80205 18.3333 8.344C18.3333 4.67925 15.3489 1.70904 11.6667 1.70904ZM13.5774 11.9043L11.6667 13.806L6.17851 8.34392L8.08926 6.44226C8.41469 6.11837 8.41469 5.59324 8.08926 5.26935L3.92259 1.1225C3.59715 0.798608 3.06951 0.798608 2.74408 1.1225L0.244078 3.61061C0.0877974 3.76615 0 3.9771 0 4.19706C0 12.8999 7.08893 19.9551 15.8333 19.9551C16.0543 19.9551 16.2663 19.8677 16.4226 19.7122L18.9226 17.2241C19.248 16.9002 19.248 16.3751 18.9226 16.0512L14.7559 11.9043C14.4305 11.5804 13.9028 11.5804 13.5774 11.9043ZM12.2559 15.5655L14.1667 13.6638L17.1548 16.6377L15.4922 18.2925C7.93925 18.1148 1.8492 12.0537 1.67069 4.5367L3.33333 2.88197L6.32149 5.85592L4.41074 7.75758C4.08531 8.08147 4.08531 8.60659 4.41074 8.93048L11.0774 15.5655C11.4028 15.8893 11.9305 15.8893 12.2559 15.5655ZM10.8333 4.19711C10.8333 4.65516 11.2064 5.02649 11.6667 5.02649C13.5073 5.02649 15 6.51213 15 8.34397C15 8.80202 15.3731 9.17334 15.8333 9.17334C16.2936 9.17334 16.6667 8.80202 16.6667 8.34397C16.6667 5.59603 14.4277 3.36774 11.6667 3.36774C11.2064 3.36774 10.8333 3.73907 10.8333 4.19711Z" fill="#111111"/>
</svg>
