<svg width="16" height="21" viewBox="0 0 16 21" fill="none" xmlns="http://www.w3.org/2000/svg">
<path fill-rule="evenodd" clip-rule="evenodd" d="M5.62376 2.23678C5.14256 2.23678 4.75248 1.8317 4.75248 1.33201C4.75248 0.832325 5.14256 0.427246 5.62376 0.427246H8C7.5188 0.427246 7.12871 0.832325 7.12871 1.33201V2.15453C7.12871 2.18226 7.12991 2.20969 7.13226 2.23678H5.62376ZM8.86773 2.23678C8.82772 2.69793 8.4545 3.0593 8 3.0593C7.5455 3.0593 7.17228 2.69793 7.13226 2.23678H8.86773ZM8.86773 2.23678C8.87009 2.20969 8.87129 2.18226 8.87129 2.15453V1.33201C8.87129 0.832325 8.4812 0.427246 8 0.427246H10.3762C10.8574 0.427246 11.2475 0.832325 11.2475 1.33201C11.2475 1.8317 10.8574 2.23678 10.3762 2.23678H8.86773ZM8 20.3322C3.58172 20.3322 0 16.6128 0 12.0247C0 7.43669 3.58172 3.71733 8 3.71733C12.4183 3.71733 16 7.43669 16 12.0247C16 16.6128 12.4183 20.3322 8 20.3322ZM11.1683 11.1199C11.6495 11.1199 12.0396 11.525 12.0396 12.0247C12.0396 12.5244 11.6495 12.9295 11.1683 12.9295H8C7.5188 12.9295 7.12871 12.5244 7.12871 12.0247V8.73464C7.12871 8.23495 7.5188 7.82987 8 7.82987C8.4812 7.82987 8.87129 8.23495 8.87129 8.73464V11.1199H11.1683ZM14.2574 12.0247C14.2574 15.6134 11.4559 18.5226 8 18.5226C4.54412 18.5226 1.74257 15.6134 1.74257 12.0247C1.74257 8.43599 4.54412 5.52679 8 5.52679C11.4559 5.52679 14.2574 8.43599 14.2574 12.0247Z" fill="#111111"/>
</svg>
